<?xml version="1.0" encoding="UTF-8" standalone="no"?>
<!-- Created with Inkscape (http://www.inkscape.org/) -->

<svg
   xmlns:dc="http://purl.org/dc/elements/1.1/"
   xmlns:cc="http://creativecommons.org/ns#"
   xmlns:rdf="http://www.w3.org/1999/02/22-rdf-syntax-ns#"
   xmlns:svg="http://www.w3.org/2000/svg"
   xmlns="http://www.w3.org/2000/svg"
   xmlns:sodipodi="http://sodipodi.sourceforge.net/DTD/sodipodi-0.dtd"
   xmlns:inkscape="http://www.inkscape.org/namespaces/inkscape"
   width="468px"
   height="60px"
   id="svg3005"
   version="1.1"
   inkscape:version="0.48.4 r9939"
   sodipodi:docname="gameover_text.svg"
   inkscape:export-filename="/home/ilia/python/fallingblocks/img/gameover_text.png"
   inkscape:export-xdpi="89"
   inkscape:export-ydpi="89">
  <defs
     id="defs3007">
    <inkscape:path-effect
       effect="spiro"
       id="path-effect3085"
       is_visible="true" />
    <inkscape:path-effect
       effect="spiro"
       id="path-effect3077"
       is_visible="true" />
  </defs>
  <sodipodi:namedview
     id="base"
     pagecolor="#ffffff"
     bordercolor="#666666"
     borderopacity="1.0"
     inkscape:pageopacity="0.0"
     inkscape:pageshadow="2"
     inkscape:zoom="1.6970563"
     inkscape:cx="556.96661"
     inkscape:cy="-156.76001"
     inkscape:document-units="px"
     inkscape:current-layer="layer1"
     showgrid="false"
     inkscape:window-width="1855"
     inkscape:window-height="1176"
     inkscape:window-x="65"
     inkscape:window-y="24"
     inkscape:window-maximized="1" />
  <metadata
     id="metadata3010">
    <rdf:RDF>
      <cc:Work
         rdf:about="">
        <dc:format>image/svg+xml</dc:format>
        <dc:type
           rdf:resource="http://purl.org/dc/dcmitype/StillImage" />
        <dc:title></dc:title>
      </cc:Work>
    </rdf:RDF>
  </metadata>
  <g
     id="layer1"
     inkscape:label="Layer 1"
     inkscape:groupmode="layer">
    <text
       xml:space="preserve"
       style="font-size:65.05267322px;font-style:normal;font-weight:normal;line-height:125%;letter-spacing:0px;word-spacing:0px;fill:#000000;fill-opacity:1;stroke:none;font-family:Sawasdee;-inkscape-font-specification:Sawasdee;font-stretch:normal;font-variant:normal;text-anchor:start;text-align:start;writing-mode:lr"
       x="31.914482"
       y="53.201527"
       id="text3013"
       sodipodi:linespacing="125%"
       transform="scale(0.98404877,1.0162098)"
       inkscape:export-filename="/home/ilia/python/fallingblocks/img/gameover_text.png"
       inkscape:export-xdpi="89"
       inkscape:export-ydpi="89"><tspan
         sodipodi:role="line"
         id="tspan3015"
         x="31.914482"
         y="53.201527">GAME OVER!</tspan></text>
    <path
       sodipodi:type="spiral"
       style="fill:none;stroke:#000000;stroke-width:1px;stroke-linecap:butt;stroke-linejoin:miter;stroke-opacity:1"
       id="path3071"
       sodipodi:cx="275.77164"
       sodipodi:cy="31.126472"
       sodipodi:expansion="1"
       sodipodi:revolution="3"
       sodipodi:radius="6.2984238"
       sodipodi:argument="-20.608574"
       sodipodi:t0="0"
       d="m 275.77164,31.126472 c -0.0591,-0.310215 0.38901,-0.232699 0.5156,-0.09821 0.34304,0.364461 0.0561,0.92616 -0.31918,1.129407 -0.67124,0.363561 -1.46884,-0.08274 -1.74322,-0.736569 -0.40266,-0.959516 0.22091,-2.020603 1.15396,-2.357023 1.2436,-0.448396 2.57581,0.358521 2.97083,1.571348 0.49709,1.526218 -0.49578,3.132725 -1.98874,3.584639 -1.80817,0.547327 -3.6906,-0.63283 -4.19844,-2.406127 -0.59848,-2.08977 0.76974,-4.249089 2.82351,-4.812255 2.37117,-0.650197 4.80798,0.906564 5.42607,3.240905 0.7023,2.652427 -1.04333,5.36715 -3.6583,6.039871 -2.9336,0.754693 -5.92653,-1.180039 -6.65368,-4.075684 -0.80728,-3.214714 1.31672,-6.48606 4.49307,-7.267487"
       transform="translate(-0.88388348,-8.5442069)" />
    <path
       sodipodi:type="spiral"
       style="fill:none;stroke:#000000;stroke-width:1px;stroke-linecap:butt;stroke-linejoin:miter;stroke-opacity:1"
       id="path3073"
       sodipodi:cx="256.3262"
       sodipodi:cy="26.1178"
       sodipodi:expansion="1"
       sodipodi:revolution="3"
       sodipodi:radius="5.8704181"
       sodipodi:argument="-21.68527"
       sodipodi:t0="0"
       d="m 256.3262,26.1178 c -0.28067,-0.08863 -0.019,-0.422068 0.14732,-0.466494 0.45069,-0.120394 0.78476,0.363362 0.78567,0.761121 0.002,0.711498 -0.71714,1.168711 -1.37493,1.104855 -0.96533,-0.09371 -1.5604,-1.074406 -1.42403,-1.988737 0.18174,-1.218659 1.43273,-1.955162 2.60254,-1.743216 1.47209,0.266713 2.35148,1.791528 2.0624,3.216353 -0.35012,1.725653 -2.15058,2.748677 -3.83016,2.381577 -1.97934,-0.432615 -3.14644,-2.509778 -2.70076,-4.443968 0.51455,-2.2331 2.86909,-3.544566 5.05778,-3.019939 2.48692,0.596115 3.94295,3.228468 3.33911,5.671584 -0.67741,2.740807 -3.5879,4.341533 -6.28539,3.6583 -2.99472,-0.758519 -4.74025,-3.947382 -3.97748,-6.8992" />
    <path
       style="fill:none;stroke:#000000;stroke-width:1px;stroke-linecap:butt;stroke-linejoin:miter;stroke-opacity:1"
       d="m 255.44232,42.616958 c 0.41556,-0.476445 0.9171,-0.877673 1.47314,-1.178511 0.0634,-0.03432 0.12818,-0.06775 0.18313,-0.114473 0.055,-0.04672 0.10012,-0.108927 0.1115,-0.180155 0.008,-0.04886 -5.7e-4,-0.09864 -0.007,-0.147734 -0.006,-0.0491 -0.01,-0.100259 0.007,-0.146894 0.0191,-0.05384 0.0637,-0.09578 0.11433,-0.122247 0.0506,-0.02646 0.10724,-0.03908 0.16351,-0.04893 0.0563,-0.0099 0.11324,-0.01729 0.16772,-0.03446 0.0545,-0.01717 0.10719,-0.04505 0.1437,-0.08899 0.0324,-0.03896 0.0502,-0.0886 0.0566,-0.138865 0.006,-0.05027 0.002,-0.101349 -0.007,-0.151231 -0.0177,-0.09976 -0.0521,-0.197877 -0.0493,-0.29916 0.003,-0.122083 0.0629,-0.239567 0.15256,-0.322507 0.0896,-0.08294 0.20744,-0.132459 0.32839,-0.149364 0.12096,-0.01691 0.24498,-0.0024 0.36236,0.03135 0.11738,0.03374 0.22859,0.08631 0.3352,0.145896 0.098,0.05478 0.19604,0.116915 0.30714,0.133197 0.0555,0.0081 0.1137,0.004 0.16534,-0.01797 0.0516,-0.02202 0.0962,-0.06299 0.11677,-0.115225 0.0191,-0.04845 0.0168,-0.103009 0.005,-0.153777 -0.0116,-0.05077 -0.0319,-0.09904 -0.0486,-0.148377 -0.0166,-0.04934 -0.0297,-0.101034 -0.026,-0.152972 0.002,-0.02597 0.008,-0.05177 0.0195,-0.07513 0.0115,-0.02336 0.0284,-0.04422 0.0499,-0.059 0.0222,-0.01532 0.0488,-0.02377 0.0757,-0.0263 0.0269,-0.0025 0.0541,7.23e-4 0.0802,0.0074 0.0523,0.01331 0.10011,0.03982 0.14911,0.06247 0.049,0.02265 0.10154,0.04193 0.15545,0.03916 0.027,-0.0014 0.0539,-0.0085 0.077,-0.02245 0.0231,-0.01397 0.0422,-0.03507 0.0519,-0.06027 0.009,-0.02363 0.01,-0.04979 0.006,-0.07486 -0.003,-0.02507 -0.0108,-0.04941 -0.0172,-0.0739 -0.006,-0.02449 -0.0119,-0.04949 -0.0116,-0.0748 3.3e-4,-0.02531 0.007,-0.05119 0.0226,-0.07106 0.0108,-0.01371 0.0257,-0.02412 0.0421,-0.03011 0.0164,-0.006 0.0343,-0.0076 0.0516,-0.0052 0.0346,0.0048 0.0658,0.02578 0.0869,0.05367 0.021,0.0279 0.0324,0.06225 0.0364,0.09695 0.004,0.0347 0.001,0.06987 -0.004,0.104364 -0.011,0.06899 -0.0322,0.137407 -0.0279,0.207137 0.002,0.03486 0.0109,0.0698 0.0293,0.09949 0.0184,0.02969 0.047,0.05376 0.0807,0.06294 0.0245,0.0067 0.0507,0.0054 0.0757,7.3e-4 0.025,-0.0046 0.0493,-0.01246 0.074,-0.01878 0.0247,-0.0063 0.05,-0.01114 0.0754,-0.0095 0.0254,0.0016 0.051,0.01012 0.0695,0.02759 0.0186,0.01757 0.0286,0.04288 0.0313,0.06832 0.003,0.02543 -0.001,0.05114 -0.007,0.076 -0.006,0.02486 -0.0141,0.04921 -0.0196,0.07418 -0.006,0.02497 -0.009,0.05091 -0.004,0.07614 0.005,0.0291 0.0193,0.05622 0.0392,0.07803 0.0199,0.02181 0.045,0.03847 0.072,0.05037 0.054,0.0238 0.11421,0.02865 0.17314,0.03171 0.0589,0.0031 0.11885,0.0048 0.17495,0.02314 0.028,0.0092 0.0549,0.02251 0.0778,0.04113 0.0229,0.01862 0.0417,0.04267 0.0522,0.07024 0.009,0.02319 0.0117,0.04834 0.0111,0.07315 -5.2e-4,0.02481 -0.004,0.04944 -0.008,0.07393 -0.008,0.04899 -0.0169,0.09993 -0.003,0.147546 0.01,0.0337 0.0308,0.06332 0.0552,0.08863 0.0244,0.02531 0.0523,0.04689 0.0802,0.0682 0.0559,0.04263 0.10955,0.0881 0.15924,0.13779 0.0982,0.09821 0.19642,0.196417 0.29463,0.294627 0.0982,0.09821 0.19641,0.196418 0.29462,0.294628 0.0496,0.04961 0.0953,0.10291 0.13842,0.15826 0.0215,0.02768 0.0433,0.05534 0.0686,0.07971 0.0252,0.02437 0.0544,0.04549 0.0876,0.05666 0.0468,0.01571 0.0976,0.01127 0.14681,0.007 0.0492,-0.0043 0.0985,-0.007 0.14782,-0.007 0.19642,0 0.39284,0 0.58926,0 0.29463,0 0.58925,0 0.88388,0 0.0982,0 0.19642,0 0.29463,0 0.0494,0 0.0987,0.0028 0.14787,0.0073 0.0492,0.0045 0.10021,0.0092 0.14676,-0.0073 0.0333,-0.0118 0.0621,-0.03421 0.086,-0.06028 0.0239,-0.02607 0.0433,-0.05585 0.0625,-0.08557 0.0192,-0.02972 0.0383,-0.05965 0.0617,-0.08615 0.0234,-0.0265 0.0515,-0.04964 0.0844,-0.06263 0.0461,-0.01821 0.0976,-0.01524 0.14674,-0.009 0.0491,0.0063 0.0988,0.01552 0.14789,0.009 0.0714,-0.0095 0.13522,-0.05208 0.18358,-0.105509 0.0484,-0.05343 0.0832,-0.117449 0.11686,-0.181182 0.0336,-0.06373 0.0669,-0.128402 0.11267,-0.184047 0.0458,-0.05565 0.10592,-0.102353 0.17615,-0.118517 0.048,-0.01104 0.0979,-0.0079 0.14706,-0.0049 0.0491,0.003 0.0983,0.0049 0.14756,0.0049 l 0.29463,0 c 0.0994,0 0.19847,0.0081 0.29696,0.02113 0.0492,0.0065 0.0987,0.01279 0.1484,0.01186 0.0497,-9.3e-4 0.1001,-0.0095 0.1439,-0.03299 0.0618,-0.0331 0.10468,-0.09221 0.14593,-0.148942 0.0412,-0.05673 0.0855,-0.115154 0.1487,-0.145686 0.0452,-0.02184 0.0968,-0.02751 0.14688,-0.02427 0.0501,0.0032 0.0992,0.01496 0.148,0.02645 0.0488,0.0115 0.0981,0.02286 0.14817,0.02535 0.0501,0.0025 0.10169,-0.0044 0.1462,-0.02753 0.0623,-0.03246 0.10435,-0.09278 0.14492,-0.150155 0.0203,-0.02869 0.0409,-0.05729 0.0652,-0.08274 0.0242,-0.02544 0.0523,-0.04777 0.0846,-0.06174 0.0456,-0.01977 0.097,-0.02181 0.14656,-0.01763 0.0495,0.0042 0.0985,0.01426 0.14807,0.01763 0.0981,0.0067 0.19716,-0.01296 0.29462,0 0.0753,0.01002 0.14897,0.04044 0.20445,0.09238 0.0555,0.05194 0.0913,0.126257 0.0902,0.202246 -7.8e-4,0.05058 -0.0173,0.09945 -0.0252,0.149404 -0.004,0.02498 -0.006,0.05049 -0.002,0.07556 0.003,0.02507 0.0121,0.04977 0.0277,0.06966 0.0166,0.02112 0.0404,0.03606 0.066,0.04399 0.0257,0.0079 0.0531,0.0091 0.0798,0.0056 0.0532,-0.007 0.10227,-0.03175 0.15037,-0.05565 0.0481,-0.0239 0.0978,-0.04769 0.15131,-0.0524 0.0267,-0.0024 0.0542,2.5e-4 0.0793,0.0098 0.0251,0.0095 0.0478,0.02624 0.0625,0.04868 0.0138,0.02096 0.0202,0.04612 0.0216,0.07116 0.001,0.02504 -0.002,0.0501 -0.007,0.07473 -0.009,0.04927 -0.0237,0.09938 -0.0148,0.148739 0.006,0.03497 0.0241,0.06717 0.0471,0.09426 0.023,0.02709 0.0511,0.04941 0.0802,0.06972 0.0583,0.04063 0.12293,0.07516 0.16733,0.130642 0.0362,0.04527 0.0563,0.101471 0.0687,0.158087 0.0125,0.05662 0.018,0.114532 0.0287,0.171507 0.0107,0.05697 0.0271,0.113962 0.059,0.16239 0.0159,0.02421 0.0357,0.04607 0.0591,0.06316 0.0234,0.01709 0.0505,0.02934 0.0791,0.03411 0.0494,0.0083 0.0994,-0.0058 0.1487,-0.01486 0.0246,-0.0045 0.0497,-0.0078 0.0747,-0.0064 0.025,0.0014 0.0501,0.0078 0.0712,0.02125 0.0224,0.01435 0.0395,0.03638 0.0497,0.06096 0.0102,0.02458 0.0138,0.05163 0.0126,0.07822 -0.003,0.05318 -0.024,0.103466 -0.0464,0.151765 -0.0224,0.0483 -0.0464,0.09686 -0.0548,0.149446 -0.004,0.02629 -0.004,0.05342 0.002,0.07935 0.006,0.02593 0.0185,0.05062 0.0372,0.06952 0.0183,0.01845 0.0422,0.03089 0.0673,0.03743 0.0252,0.0065 0.0516,0.0073 0.0774,0.0045 0.0517,-0.0057 0.10054,-0.02548 0.14986,-0.04193 0.048,-0.01602 0.0975,-0.02907 0.14811,-0.03149 0.0506,-0.0024 0.10259,0.0063 0.14652,0.03149 0.0612,0.03508 0.1005,0.09746 0.14048,0.155538 0.02,0.02904 0.0409,0.05771 0.0659,0.08249 0.0251,0.02477 0.0547,0.04566 0.0882,0.0566 0.0469,0.01532 0.0977,0.01098 0.14683,0.0068 0.0492,-0.0042 0.0984,-0.0068 0.14779,-0.0068 l 0.29463,0 c 0.0494,0 0.0987,0.0028 0.14787,0.0073 0.0492,0.0045 0.10022,0.0092 0.14676,-0.0073 0.0333,-0.01182 0.0621,-0.03427 0.086,-0.06037 0.0239,-0.0261 0.0433,-0.05591 0.0624,-0.08565 0.0191,-0.02973 0.0383,-0.05968 0.0617,-0.08616 0.0234,-0.02648 0.0516,-0.04957 0.0845,-0.06245 0.0461,-0.01804 0.0976,-0.01477 0.14676,-0.0084 0.0491,0.0063 0.0988,0.01552 0.14786,0.0084 0.0717,-0.01037 0.13474,-0.05507 0.18167,-0.110201 0.0469,-0.05513 0.0798,-0.120538 0.1124,-0.185213 0.0325,-0.06467 0.0656,-0.130023 0.11281,-0.184935 0.0472,-0.05491 0.11063,-0.0992 0.18238,-0.108906 0.0491,-0.0067 0.0988,0.0031 0.14795,0.0096 0.0492,0.0065 0.10091,0.0095 0.14668,-0.0096 0.0352,-0.01469 0.0644,-0.04167 0.0862,-0.07294 0.0218,-0.03127 0.0369,-0.0668 0.049,-0.102963 0.0243,-0.07232 0.0389,-0.148311 0.0728,-0.216661 0.0339,-0.06835 0.0884,-0.12741 0.15739,-0.160045 0.069,-0.03263 0.14752,-0.03665 0.22381,-0.03665 l 0.29463,0 c 0.0492,0 0.0984,0.0018 0.14754,0.0046 0.0491,0.0029 0.099,0.0059 0.14709,-0.0046 0.0699,-0.01523 0.13097,-0.05919 0.17871,-0.112508 0.0477,-0.05332 0.0836,-0.115958 0.11882,-0.178279 0.0352,-0.06232 0.0703,-0.125306 0.1168,-0.179708 0.0465,-0.0544 0.10577,-0.100323 0.17492,-0.11876 0.0486,-0.01297 0.10007,-0.01186 0.14988,-0.0047 0.0498,0.0072 0.0986,0.02027 0.1477,0.03114 0.0492,0.01087 0.0992,0.01956 0.14953,0.0177 0.0503,-0.0019 0.1012,-0.01489 0.14215,-0.04416 0.0465,-0.03321 0.0769,-0.08496 0.0954,-0.139013 0.0184,-0.05406 0.026,-0.111083 0.0353,-0.167443 0.009,-0.05636 0.0205,-0.113188 0.0455,-0.164561 0.025,-0.05137 0.0653,-0.09739 0.11849,-0.118239 0.0491,-0.01926 0.1046,-0.01549 0.15564,-0.0021 0.051,0.01337 0.0992,0.03581 0.14877,0.05383 0.0496,0.01802 0.10214,0.03179 0.15466,0.02671 0.0263,-0.0025 0.0522,-0.0099 0.0751,-0.02301 0.0229,-0.01312 0.0426,-0.03215 0.0551,-0.05541 0.0118,-0.02198 0.0168,-0.0471 0.0176,-0.07203 7.5e-4,-0.02492 -0.003,-0.04979 -0.007,-0.07435 -0.009,-0.04913 -0.0207,-0.09939 -0.0107,-0.148248 0.006,-0.02829 0.0189,-0.05487 0.0367,-0.07762 0.0178,-0.02275 0.0401,-0.04174 0.0647,-0.05696 0.0491,-0.03043 0.10608,-0.04556 0.16292,-0.05579 0.0568,-0.01022 0.11453,-0.01596 0.17065,-0.02959 0.0561,-0.01364 0.11153,-0.0359 0.15433,-0.07467 0.0419,-0.03801 0.0694,-0.08976 0.0875,-0.14337 0.0182,-0.05361 0.0278,-0.109659 0.0394,-0.165057 0.0116,-0.0554 0.0255,-0.110955 0.0514,-0.16128 0.0259,-0.05032 0.065,-0.09553 0.11626,-0.119548 0.0452,-0.02116 0.0968,-0.02467 0.14649,-0.02082 0.0497,0.0039 0.0986,0.01466 0.14814,0.02082 0.11738,0.01459 0.23962,0.0021 0.34713,-0.04721 0.10752,-0.04931 0.1991,-0.137234 0.24212,-0.24742 0.0366,-0.09363 0.0366,-0.200996 0,-0.294628"
       id="path3083"
       inkscape:path-effect="#path-effect3085"
       inkscape:original-d="m 255.44232,42.616958 c 1.28963,-0.967217 0.83129,-0.536661 1.47314,-1.178511 0.0982,-0.09821 0.23252,-0.170402 0.29463,-0.294628 0.0439,-0.08784 -0.0694,-0.225183 0,-0.294628 0.15528,-0.155282 0.43398,-0.139345 0.58926,-0.294627 0.13889,-0.138889 -0.13889,-0.450367 0,-0.589256 0.38247,-0.382469 0.71174,-0.294628 1.17851,-0.294628 0.19642,0 0.41357,0.08784 0.58925,0 0.15175,-0.07587 -0.13446,-0.454787 0,-0.589256 0.13889,-0.138889 0.45037,0.138889 0.58926,0 0.0694,-0.06944 -0.0982,-0.294627 0,-0.294627 0.61309,0 0.11855,0.413176 0.29463,0.589255 0.0694,0.06945 0.22518,-0.06944 0.29463,0 0.0694,0.06945 -0.0695,0.225184 0,0.294628 0.60959,0.609595 -0.0238,-0.931543 0.58925,0.294628 0.0439,0.08784 -0.0439,0.206787 0,0.294628 0.0621,0.124226 0.19642,0.196418 0.29463,0.294628 0.0982,0.09821 0.19642,0.196418 0.29463,0.294627 0.0982,0.09821 0.19642,0.196419 0.29462,0.294628 0.0982,0.09821 0.17041,0.232515 0.29463,0.294628 0.0878,0.04392 0.19642,0 0.29463,0 0.19642,0 0.39284,0 0.58926,0 0.29462,0 0.58925,0 0.88388,0 0.0982,0 0.19642,0 0.29463,0 0.0982,0 0.20678,0.04392 0.29463,0 0.12422,-0.06211 0.1704,-0.232515 0.29462,-0.294628 0.0878,-0.04392 0.20679,0.04392 0.29463,0 0.25098,-0.12549 0.33828,-0.463765 0.58926,-0.589255 0.0878,-0.04392 0.19642,0 0.29462,0 0.0982,0 0.19642,0 0.29463,0 0.19642,0 0.40292,0.06211 0.58926,0 0.13176,-0.04392 0.1704,-0.232515 0.29463,-0.294628 0.17568,-0.08784 0.41357,0.08784 0.58925,0 0.12423,-0.06211 0.1704,-0.232515 0.29463,-0.294628 0.0878,-0.04392 0.19642,0 0.29463,0 0.0982,0 0.20678,-0.04392 0.29462,0 0.12423,0.06211 0.23252,0.170402 0.29463,0.294628 0.0439,0.08784 -0.0878,0.250707 0,0.294628 0.17568,0.08784 0.41358,-0.08784 0.58926,0 0.0878,0.04392 -0.0439,0.206786 0,0.294627 0.0621,0.124226 0.21758,0.179066 0.29463,0.294628 0.12181,0.182721 0.13934,0.433973 0.29462,0.589256 0.0694,0.06944 0.25071,-0.08784 0.29463,0 0.0878,0.175682 -0.0878,0.413573 0,0.589255 0.0439,0.08784 0.19642,0 0.29463,0 0.0982,0 0.20679,-0.04392 0.29463,0 0.12422,0.06211 0.1704,0.232515 0.29463,0.294628 0.0878,0.04392 0.19641,0 0.29462,0 0.0982,0 0.19642,0 0.29463,0 0.0982,0 0.20679,0.04392 0.29463,0 0.12422,-0.06211 0.1704,-0.232515 0.29463,-0.294628 0.0878,-0.04392 0.20678,0.04392 0.29462,0 0.24846,-0.124226 0.34081,-0.465029 0.58926,-0.589255 0.0878,-0.04392 0.22518,0.06944 0.29463,0 0.67709,-0.677097 -0.0764,-0.589256 0.58925,-0.589256 0.0982,0 0.19642,0 0.29463,0 0.0982,0 0.20679,0.04392 0.29463,0 0.24845,-0.124226 0.3408,-0.465029 0.58925,-0.589255 0.12291,-0.06145 0.52067,0.06859 0.58926,0 0.39284,-0.392838 -0.625,-0.282714 0.29463,-0.589256 0.18634,-0.06211 0.41357,0.08784 0.58925,0 0.0879,-0.04392 -0.0439,-0.206787 0,-0.294628 0.32572,-0.651438 0.18286,-0.09143 0.58926,-0.294628 1.22617,-0.613085 -0.31497,0.02034 0.29463,-0.589255 0.0694,-0.06945 0.19642,0 0.29463,0 0.30479,0 0.40721,0.06944 0.58925,-0.294628 0.0439,-0.08784 0,-0.196419 0,-0.294628"
       inkscape:connector-curvature="0" />
    <path
       sodipodi:type="star"
       style="fill:#ffff00;fill-rule:evenodd;stroke:#000000;stroke-width:1px;stroke-linecap:butt;stroke-linejoin:miter;stroke-opacity:1"
       id="path3097"
       sodipodi:sides="5"
       sodipodi:cx="237.47003"
       sodipodi:cy="37.313656"
       sodipodi:r1="3.5477889"
       sodipodi:r2="1.7738945"
       sodipodi:arg1="1.4876551"
       sodipodi:arg2="2.1159736"
       inkscape:flatsided="false"
       inkscape:rounded="0"
       inkscape:randomized="0"
       d="m 237.76466,40.84919 -1.21452,-2.018792 -2.35156,-0.143994 1.54468,-1.778914 -0.58972,-2.280963 2.16918,0.919362 1.98709,-1.265718 -0.20405,2.347111 1.81781,1.498706 -2.29529,0.531232 z"
       inkscape:transform-center-x="-0.091045005"
       inkscape:transform-center-y="0.2510245"
       transform="translate(-0.29462783,-9.7227182)" />
    <path
       sodipodi:type="star"
       style="fill:#ffff00;fill-rule:evenodd;stroke:#000000;stroke-width:1px;stroke-linecap:butt;stroke-linejoin:miter;stroke-opacity:1"
       id="path3097-8"
       sodipodi:sides="5"
       sodipodi:cx="237.47003"
       sodipodi:cy="37.313656"
       sodipodi:r1="3.5477889"
       sodipodi:r2="1.7738945"
       sodipodi:arg1="1.4876551"
       sodipodi:arg2="2.1159736"
       inkscape:flatsided="false"
       inkscape:rounded="0"
       inkscape:randomized="0"
       d="m 237.76466,40.84919 -1.21452,-2.018792 -2.35156,-0.143994 1.54468,-1.778914 -0.58972,-2.280963 2.16918,0.919362 1.98709,-1.265718 -0.20405,2.347111 1.81781,1.498706 -2.29529,0.531232 z"
       inkscape:transform-center-x="-0.091045005"
       inkscape:transform-center-y="0.2510245"
       transform="translate(46.460147,-32.365455)" />
    <path
       sodipodi:type="star"
       style="fill:#ffff00;fill-rule:evenodd;stroke:#000000;stroke-width:1px;stroke-linecap:butt;stroke-linejoin:miter;stroke-opacity:1"
       id="path3097-4"
       sodipodi:sides="5"
       sodipodi:cx="237.47003"
       sodipodi:cy="37.313656"
       sodipodi:r1="3.5477889"
       sodipodi:r2="1.7738945"
       sodipodi:arg1="1.4876551"
       sodipodi:arg2="2.1159736"
       inkscape:flatsided="false"
       inkscape:rounded="0"
       inkscape:randomized="0"
       d="m 237.76466,40.84919 -1.21452,-2.018792 -2.35156,-0.143994 1.54468,-1.778914 -0.58972,-2.280963 2.16918,0.919362 1.98709,-1.265718 -0.20405,2.347111 1.81781,1.498706 -2.29529,0.531232 z"
       inkscape:transform-center-x="-0.039039341"
       inkscape:transform-center-y="0.36742137"
       transform="matrix(0.3080704,1.1542216,-1.1542216,0.3080704,215.94835,-276.41682)" />
    <path
       style="fill:#ffeeaa;fill-opacity:1;stroke:#d88f63;stroke-width:0;stroke-miterlimit:4;stroke-opacity:0.50393701;stroke-dasharray:none"
       d="m 264.54115,51.532038 c -0.14323,-0.02103 -0.61198,-0.08871 -1.04167,-0.150407 -4.5717,-0.656456 -9.38024,-3.350109 -12.40758,-6.950487 -5.65558,-6.726118 -6.90374,-16.136119 -3.17361,-23.926259 1.80088,-3.761027 4.34883,-6.700943 7.71661,-8.903691 3.36439,-2.2005344 7.74175,-3.3827684 11.80411,-3.1880486 3.65494,0.1751907 6.83131,1.1627325 9.9386,3.0899316 8.61124,5.340864 12.29909,16.482985 8.67008,26.195022 -2.79213,7.472354 -9.1059,12.659771 -16.72706,13.742993 -0.97309,0.138308 -4.05704,0.196991 -4.77948,0.09095 l 0,0 z m 8.64393,-8.640144 c 0.29483,-0.148083 0.56151,-0.335583 0.59262,-0.416667 0.0311,-0.08108 0.12548,-0.147425 0.20969,-0.147425 0.0842,0 0.29374,-0.140625 0.46562,-0.3125 0.22045,-0.220449 0.41335,-0.3125 0.65487,-0.3125 0.21989,0 0.43128,-0.08783 0.59094,-0.245521 0.13672,-0.135037 0.42652,-0.27819 0.644,-0.31812 0.27771,-0.05099 0.42998,-0.148447 0.51151,-0.327395 0.0744,-0.163225 0.20256,-0.254797 0.35667,-0.254797 0.14634,0 0.33078,-0.121998 0.47085,-0.311452 0.12664,-0.171299 0.30843,-0.336263 0.40397,-0.366586 0.0955,-0.03032 0.2267,-0.17142 0.29146,-0.313548 0.0744,-0.163217 0.2049,-0.259267 0.35435,-0.260731 0.33552,-0.0033 0.68939,-0.307969 0.79816,-0.68724 0.14781,-0.51538 0.0614,-0.555624 -0.91616,-0.426562 -0.82961,0.10953 -0.88496,0.133134 -1.07755,0.459539 -0.11165,0.189244 -0.26143,0.34408 -0.33282,0.34408 -0.0714,0 -0.21466,0.09375 -0.31836,0.208333 -0.1037,0.114583 -0.25961,0.208333 -0.34648,0.208333 -0.20246,0 -0.53894,0.30274 -0.53894,0.484895 0,0.08067 -0.11248,0.140105 -0.26515,0.140105 -0.14583,0 -0.37645,0.111302 -0.51249,0.247338 -0.15061,0.150618 -0.43278,0.275147 -0.72155,0.318451 -0.3229,0.04842 -0.53808,0.152308 -0.67438,0.325579 -0.11009,0.139956 -0.24803,0.254466 -0.30655,0.254466 -0.0585,0 -0.23911,0.140625 -0.40133,0.3125 -0.16223,0.171875 -0.37437,0.3125 -0.47144,0.3125 -0.0971,0 -0.20545,0.04687 -0.24086,0.104166 -0.15723,0.254409 -1.03393,-0.0641 -1.1457,-0.416242 -0.0346,-0.108956 -0.15489,-0.227307 -0.26736,-0.263004 -0.11247,-0.0357 -0.30929,-0.294957 -0.43738,-0.576136 -0.16132,-0.35413 -0.33693,-0.5614 -0.57143,-0.67448 -0.1862,-0.08978 -0.33854,-0.200397 -0.33854,-0.245804 0,-0.300211 -1.27249,-0.434781 -1.62072,-0.171396 -0.11121,0.08411 -0.32537,0.154427 -0.4759,0.15625 -0.15054,0.0018 -0.33206,0.07362 -0.40338,0.159562 -0.0899,0.108256 -0.32878,0.15625 -0.77786,0.15625 -0.51169,0 -0.68713,0.04303 -0.83313,0.204354 -0.40877,0.45169 -0.95013,0.62898 -1.92062,0.62898 l -0.92103,0 -0.42993,-0.466423 c -0.23646,-0.256533 -0.42993,-0.530034 -0.42993,-0.607782 0,-0.07775 -0.14063,-0.266656 -0.3125,-0.419797 -0.17188,-0.153141 -0.3125,-0.324953 -0.3125,-0.381801 0,-0.05685 -0.0652,-0.103364 -0.14496,-0.103364 -0.0797,0 -0.17221,-0.10859 -0.20552,-0.24131 -0.0333,-0.132721 -0.17871,-0.30454 -0.32311,-0.38182 -0.23484,-0.125683 -0.32366,-0.110586 -0.84169,0.143069 -0.31853,0.155967 -0.6063,0.354359 -0.6395,0.44087 -0.0403,0.105128 -0.18532,0.151635 -0.43717,0.140233 -0.20724,-0.0094 -0.46244,-0.01252 -0.56711,-0.007 -0.27912,0.0148 -0.79928,0.579623 -0.79928,0.867907 0,0.155702 -0.11696,0.335316 -0.3125,0.479881 -0.17187,0.127073 -0.3125,0.312804 -0.3125,0.412735 0,0.101804 -0.27143,0.379358 -0.61732,0.631243 -0.33953,0.247252 -0.69659,0.537127 -0.79346,0.644165 -0.16684,0.18436 -0.15855,0.216807 0.15733,0.61564 0.1834,0.231561 0.36763,0.421022 0.40938,0.421022 0.0418,0 0.21361,-0.14669 0.38188,-0.325976 0.16827,-0.179288 0.55438,-0.486916 0.85803,-0.683618 0.30365,-0.196702 0.60179,-0.466738 0.66255,-0.600079 0.0608,-0.133342 0.21852,-0.300272 0.3506,-0.370957 0.24458,-0.130899 0.35787,-0.38463 0.36042,-0.807227 10e-4,-0.230489 0.01,-0.23224 0.37873,-0.07813 0.55619,0.23239 0.92774,0.200881 1.16335,-0.09866 l 0.20161,-0.256303 1.07925,1.089636 1.07924,1.089638 1.30483,7.29e-4 c 1.205,6.25e-4 1.35067,-0.021 1.90392,-0.28295 0.3295,-0.15601 0.62751,-0.373197 0.66225,-0.482637 0.0542,-0.170782 0.13314,-0.190693 0.557,-0.140494 0.32827,0.03888 0.59044,0.0084 0.78195,-0.09098 0.15846,-0.08221 0.36478,-0.149762 0.4585,-0.150115 0.0937,-3.13e-4 0.29733,-0.06687 0.45249,-0.147819 0.25358,-0.132286 0.28797,-0.12873 0.33999,0.03515 0.0318,0.10028 0.233,0.274272 0.44705,0.386647 0.21838,0.11465 0.47031,0.362367 0.57405,0.564449 0.37103,0.722808 0.56581,0.987606 0.81287,1.10507 0.90886,0.432123 1.8356,0.460549 2.59411,0.07957 l 0,-2.4e-5 z M 257.40573,31.765752 c 2.0636,-0.566224 3.5738,-2.005595 4.05908,-3.868675 0.19735,-0.757699 0.20448,-2.110467 0.0149,-2.822568 -0.46012,-1.728037 -1.89934,-3.196995 -3.55472,-3.628165 -3.43508,-0.894726 -6.58081,1.956637 -5.83868,5.292334 0.38299,1.721492 1.58386,2.877414 3.32337,3.198979 2.44392,0.451785 4.69737,-1.733305 4.23803,-4.109483 -0.37067,-1.917543 -2.09735,-2.992426 -3.9607,-2.465599 -0.61362,0.173492 -1.49278,1.03502 -1.65466,1.621477 -0.29575,1.071473 0.0555,2.213901 0.8404,2.73332 0.74818,0.495122 1.82542,0.414976 2.46127,-0.183116 0.31295,-0.294366 0.43633,-0.633456 0.43633,-1.199194 0,-0.364134 -0.0665,-0.534028 -0.32329,-0.826552 -0.28437,-0.323874 -0.38252,-0.368208 -0.81518,-0.368208 -0.37616,0 -0.5431,0.05514 -0.70957,0.234375 -0.48398,0.52107 -0.22715,1.427516 0.27556,0.972571 0.20937,-0.189479 0.53081,-0.165387 0.53081,0.03978 0,0.23157 -0.42593,0.524102 -0.76309,0.524102 -0.89785,0 -1.28314,-1.396256 -0.56621,-2.051891 0.87613,-0.801211 2.07869,-0.681076 2.77271,0.276986 1.07781,1.487872 -0.032,3.57074 -1.98472,3.724808 -2.08471,0.164486 -3.66788,-2.126675 -2.89126,-4.184217 0.43792,-1.160218 1.52573,-2.030354 2.79349,-2.234521 3.52319,-0.567394 5.8622,3.881933 3.49724,6.65255 -1.47668,1.729975 -3.61395,2.207154 -5.63976,1.259162 -1.92662,-0.901574 -3.22148,-3.513026 -2.74938,-5.544892 l 0.0891,-0.383265 -0.51382,-0.123266 c -0.28261,-0.06779 -0.53218,-0.104913 -0.55461,-0.08248 -0.0224,0.02243 -0.0915,0.358282 -0.15349,0.746339 -0.45968,2.87743 1.58218,6.025219 4.40078,6.784374 0.70391,0.189589 2.27455,0.197566 2.94015,0.01493 z m 18.31113,-3.445539 c 1.96944,-0.417318 3.66978,-1.934811 4.24588,-3.789293 0.30472,-0.980914 0.3058,-2.346602 0.003,-3.232969 -1.19205,-3.484231 -5.47742,-4.673908 -7.98229,-2.215995 -1.30809,1.283565 -1.71063,3.064046 -1.07687,4.763138 0.32259,0.864887 1.3565,1.898045 2.22877,2.227163 1.77563,0.669964 3.71277,0.0061 4.58685,-1.572017 0.28475,-0.514095 0.30899,-0.639564 0.30899,-1.599521 0,-0.9493 -0.0255,-1.084965 -0.28705,-1.529964 -0.31802,-0.541001 -0.97707,-1.117236 -1.53587,-1.342888 -0.56366,-0.227613 -1.63475,-0.184448 -2.15027,0.08665 -0.82497,0.433842 -1.39481,1.346736 -1.38911,2.225366 0.005,0.802445 0.6485,1.633274 1.45069,1.873618 1.2365,0.370463 2.38639,-0.806418 1.83318,-1.876204 -0.3044,-0.588647 -1.31677,-0.687996 -1.52157,-0.149319 -0.13017,0.342377 -0.14133,0.322066 0.22057,0.401552 0.42509,0.09337 0.40285,0.502421 -0.03,0.552287 -0.68623,0.07905 -1.07698,-0.966441 -0.59175,-1.583302 0.68227,-0.867371 2.00936,-0.733845 2.67297,0.268942 0.63099,0.953476 0.24718,2.36896 -0.82147,3.02966 -1.04685,0.647214 -2.32743,0.455043 -3.27374,-0.491275 -1.53016,-1.530154 -0.98272,-4.119049 1.0858,-5.13487 0.50996,-0.250436 0.7116,-0.288591 1.52515,-0.288591 0.79477,0 1.02473,0.04139 1.51042,0.271883 0.88722,0.421037 1.50044,1.031828 1.9508,1.943061 0.36699,0.74256 0.39295,0.857374 0.39295,1.737988 0,0.849921 -0.0338,1.014222 -0.34249,1.666157 -0.43518,0.919009 -0.91153,1.499196 -1.61335,1.965033 -1.38999,0.922624 -3.01811,1.054677 -4.47283,0.362781 -0.86097,-0.409496 -1.7875,-1.204911 -2.2511,-1.932555 -0.93901,-1.473791 -1.00714,-3.487338 -0.17355,-5.128931 0.58786,-1.157683 1.84784,-2.270586 3.04635,-2.690754 0.30096,-0.105509 0.56845,-0.21309 0.59443,-0.239069 0.026,-0.02598 -0.0157,-0.256303 -0.0925,-0.511831 -0.12323,-0.409653 -0.17282,-0.462161 -0.41932,-0.444002 -0.15375,0.01133 -0.67574,0.212362 -1.15998,0.446746 -2.20289,1.066259 -3.68421,3.453496 -3.6852,5.93891 -0.001,3.266658 2.74853,6.059078 6.03832,6.131847 0.25781,0.0057 0.78688,-0.05704 1.17571,-0.139436 l 0,0 z"
       id="path3128"
       inkscape:connector-curvature="0" />
  </g>
</svg>
