<?xml version="1.0" encoding="UTF-8" standalone="no"?>
<!-- Created with Inkscape (http://www.inkscape.org/) -->

<svg
   xmlns:dc="http://purl.org/dc/elements/1.1/"
   xmlns:cc="http://creativecommons.org/ns#"
   xmlns:rdf="http://www.w3.org/1999/02/22-rdf-syntax-ns#"
   xmlns:svg="http://www.w3.org/2000/svg"
   xmlns="http://www.w3.org/2000/svg"
   xmlns:sodipodi="http://sodipodi.sourceforge.net/DTD/sodipodi-0.dtd"
   xmlns:inkscape="http://www.inkscape.org/namespaces/inkscape"
   width="64px"
   height="64px"
   id="svg2985"
   version="1.1"
   inkscape:version="0.48.4 r9939"
   sodipodi:docname="Новый документ 2">
  <defs
     id="defs2987" />
  <sodipodi:namedview
     id="base"
     pagecolor="#ffffff"
     bordercolor="#666666"
     borderopacity="1.0"
     inkscape:pageopacity="0.0"
     inkscape:pageshadow="2"
     inkscape:zoom="5.5"
     inkscape:cx="32"
     inkscape:cy="32"
     inkscape:current-layer="layer1"
     showgrid="true"
     inkscape:document-units="px"
     inkscape:grid-bbox="true"
     inkscape:window-width="1627"
     inkscape:window-height="995"
     inkscape:window-x="143"
     inkscape:window-y="45"
     inkscape:window-maximized="0" />
  <metadata
     id="metadata2990">
    <rdf:RDF>
      <cc:Work
         rdf:about="">
        <dc:format>image/svg+xml</dc:format>
        <dc:type
           rdf:resource="http://purl.org/dc/dcmitype/StillImage" />
        <dc:title></dc:title>
      </cc:Work>
    </rdf:RDF>
  </metadata>
  <g
     id="layer1"
     inkscape:label="Layer 1"
     inkscape:groupmode="layer">
    <rect
       style="fill:#ff0000;fill-opacity:1;stroke:#000000;stroke-width:1;stroke-miterlimit:4;stroke-opacity:1;stroke-dasharray:none"
       id="rect3013"
       width="64"
       height="64"
       x="0.36363637"
       y="0.36363637" />
    <path
       style="fill:#d35f5f;fill-opacity:1;stroke:#000000;stroke-width:0.18181818999999999;stroke-miterlimit:4;stroke-opacity:1;stroke-dasharray:none"
       d="m 1.0181818,32.345455 0,-31.36363682 31.3636362,0 31.363637,0 0,31.36363682 0,31.363636 -31.363637,0 -31.3636362,0 0,-31.363636 z"
       id="path3027"
       inkscape:connector-curvature="0" />
    <path
       style="fill:#ff8080;fill-opacity:1;stroke:#000000;stroke-width:0.18181818999999999;stroke-miterlimit:4;stroke-opacity:1;stroke-dasharray:none"
       d="m 1.2,32.345455 0,-31.1818186 31.181818,0 31.181818,0 0,31.1818186 0,31.181818 -31.181818,0 -31.181818,0 0,-31.181818 z"
       id="path3029"
       inkscape:connector-curvature="0" />
    <path
       sodipodi:type="star"
       style="fill:#ff2a2a;fill-opacity:1;stroke:#000000;stroke-width:1;stroke-miterlimit:4;stroke-opacity:1;stroke-dasharray:none"
       id="path3041"
       sodipodi:sides="6"
       sodipodi:cx="8.5454545"
       sodipodi:cy="9.6363636"
       sodipodi:r1="6.9186537"
       sodipodi:r2="5.9917298"
       sodipodi:arg1="-0.052583062"
       sodipodi:arg2="0.47101571"
       inkscape:flatsided="true"
       inkscape:rounded="0"
       inkscape:randomized="0"
       d="M 15.454545,9.2727276 12.314918,15.437994 5.405827,15.80163 1.6363633,10 4.7759903,3.8347341 11.685081,3.4710977 z" />
    <path
       sodipodi:type="star"
       style="fill:#ff2a2a;fill-opacity:1;stroke:#000000;stroke-width:1;stroke-miterlimit:4;stroke-opacity:1;stroke-dasharray:none"
       id="path3043"
       sodipodi:sides="6"
       sodipodi:cx="40.363636"
       sodipodi:cy="15.818182"
       sodipodi:r1="12.291232"
       sodipodi:r2="10.644519"
       sodipodi:arg1="0.13352905"
       sodipodi:arg2="0.65712782"
       inkscape:flatsided="true"
       inkscape:rounded="0"
       inkscape:randomized="0"
       d="M 52.545454,17.454546 45.037413,27.186128 32.855594,25.549764 28.181818,14.181818 35.689859,4.4502359 47.871678,6.0865996 z" />
    <path
       sodipodi:type="star"
       style="fill:#ff2a2a;fill-opacity:1;stroke:#000000;stroke-width:1;stroke-miterlimit:4;stroke-opacity:1;stroke-dasharray:none"
       id="path3045"
       sodipodi:sides="6"
       sodipodi:cx="37.272727"
       sodipodi:cy="44.181818"
       sodipodi:r1="5.4817503"
       sodipodi:r2="4.7473351"
       sodipodi:arg1="-3.041924"
       sodipodi:arg2="-2.5183252"
       inkscape:flatsided="true"
       inkscape:rounded="0"
       inkscape:randomized="0"
       d="m 31.818182,43.636362 3.199651,-4.451048 5.454545,0.545454 2.254896,4.996503 -3.199651,4.451047 -5.454545,-0.545454 z" />
    <path
       sodipodi:type="star"
       style="fill:#ff2a2a;fill-opacity:1;stroke:#000000;stroke-width:1;stroke-miterlimit:4;stroke-opacity:1;stroke-dasharray:none"
       id="path3047"
       sodipodi:sides="6"
       sodipodi:cx="10.545455"
       sodipodi:cy="25.090909"
       sodipodi:r1="5.0419726"
       sodipodi:r2="4.3664763"
       sodipodi:arg1="0.44751998"
       sodipodi:arg2="0.97111875"
       inkscape:flatsided="true"
       inkscape:rounded="0"
       inkscape:randomized="0"
       d="m 15.09091,27.272726 -4.162238,2.84557 -4.5454543,-2.181818 -0.3832173,-5.027388 4.1622376,-2.84557 4.545454,2.181818 z" />
    <path
       sodipodi:type="star"
       style="fill:#ff2a2a;fill-opacity:1;stroke:#000000;stroke-width:1;stroke-miterlimit:4;stroke-opacity:1;stroke-dasharray:none"
       id="path3049"
       sodipodi:sides="6"
       sodipodi:cx="18.909091"
       sodipodi:cy="45.454545"
       sodipodi:r1="6.133501"
       sodipodi:r2="5.3117677"
       sodipodi:arg1="-2.9325697"
       sodipodi:arg2="-2.4089709"
       inkscape:flatsided="true"
       inkscape:rounded="0"
       inkscape:randomized="0"
       d="m 12.909092,44.181817 4.102214,-4.559789 6,1.272727 1.897786,5.832516 -4.102214,4.559789 -6,-1.272727 z" />
    <path
       sodipodi:type="star"
       style="fill:#ff2a2a;fill-opacity:1;stroke:#000000;stroke-width:1;stroke-miterlimit:4;stroke-opacity:1;stroke-dasharray:none"
       id="path3051"
       sodipodi:sides="6"
       sodipodi:cx="22.545455"
       sodipodi:cy="26.363636"
       sodipodi:r1="3.8655076"
       sodipodi:r2="3.3476278"
       sodipodi:arg1="0.85196633"
       sodipodi:arg2="1.3755651"
       inkscape:flatsided="true"
       inkscape:rounded="0"
       inkscape:randomized="0"
       d="m 25.09091,29.272727 -3.792073,0.749883 -2.545455,-2.909091 1.246619,-3.658974 3.792074,-0.749883 2.545455,2.909091 z" />
    <path
       sodipodi:type="star"
       style="fill:#ff2a2a;fill-opacity:1;stroke:#000000;stroke-width:1;stroke-miterlimit:4;stroke-opacity:1;stroke-dasharray:none"
       id="path3053"
       sodipodi:sides="6"
       sodipodi:cx="59.818182"
       sodipodi:cy="37.454545"
       sodipodi:r1="2.7753341"
       sodipodi:r2="2.4035098"
       sodipodi:arg1="-2.5899377"
       sodipodi:arg2="-2.0663389"
       inkscape:flatsided="true"
       inkscape:rounded="0"
       inkscape:randomized="0"
       d="m 57.454547,35.999999 2.441492,-1.319697 2.363636,1.454546 -0.07785,2.774241 -2.441491,1.319697 -2.363637,-1.454545 z" />
    <path
       sodipodi:type="star"
       style="fill:#ff2a2a;fill-opacity:1;stroke:#000000;stroke-width:1;stroke-miterlimit:4;stroke-opacity:1;stroke-dasharray:none"
       id="path3055"
       sodipodi:sides="6"
       sodipodi:cx="52"
       sodipodi:cy="56"
       sodipodi:r1="5.5625667"
       sodipodi:r2="4.8173241"
       sodipodi:arg1="0.19739556"
       sodipodi:arg2="0.72099434"
       inkscape:flatsided="true"
       inkscape:rounded="0"
       inkscape:randomized="0"
       d="m 57.454545,57.090909 -3.672027,4.17832 -5.454546,-1.090909 -1.782517,-5.269229 3.672027,-4.17832 5.454546,1.090909 z" />
    <path
       style="fill:#ff2a2a;fill-opacity:1;stroke:#000000;stroke-width:0.18181819;stroke-miterlimit:4;stroke-opacity:1;stroke-dasharray:none"
       d="m 1.3818182,37.027387 0,-26.318067 1.4145208,2.181704 c 0.7779865,1.199937 1.6028254,2.488496 1.8329755,2.863465 l 0.418455,0.681761 1.7579334,-0.105924 c 0.9668635,-0.05826 2.6851627,-0.160505 3.8184431,-0.227215 l 2.060509,-0.121293 1.743106,-3.363636 1.743107,-3.3636365 -2.060087,-3.1818182 c -1.133048,-1.75 -2.067402,-3.1881358 -2.076343,-3.1958572 -0.08025,-0.069309 -7.5576304,0.4033094 -7.6367602,0.4826926 -0.057575,0.05776 -0.757856,1.3668506 -1.5561794,2.9090909 l -1.4514975,2.8040737 -0.00409,-3.8636364 -0.00409,-3.8636364 31.0000001,0 31,0 0,31.0000005 0,31 -31,0 -31.0000001,0 0,-26.318068 z M 55.84246,59.845455 c 0.980785,-1.125 1.894415,-2.177284 2.030287,-2.338408 0.212164,-0.251594 0.114353,-0.68796 -0.692823,-3.090909 -0.516926,-1.538876 -1.030695,-2.888887 -1.141711,-3.000023 -0.111018,-0.111139 -1.347304,-0.423911 -2.747304,-0.695055 -1.4,-0.271142 -2.71596,-0.533398 -2.924354,-0.582793 -0.304015,-0.07206 -0.766108,0.352788 -2.33806,2.1496 -1.077539,1.231673 -1.9919,2.321224 -2.031913,2.421224 -0.04001,0.1 0.364118,1.489136 0.898071,3.086967 l 0.970822,2.905151 2.803627,0.575909 c 1.541993,0.316751 2.935583,0.584435 3.096867,0.594851 0.161284,0.01042 1.095704,-0.901514 2.076491,-2.026514 l 0,0 z M 22.837322,49.954522 c 0.949473,-1.065013 1.954243,-2.206795 2.232823,-2.537291 l 0.50651,-0.600906 -1.043559,-3.189487 c -0.668974,-2.044629 -1.144469,-3.220791 -1.324691,-3.276698 -0.154623,-0.04797 -1.66636,-0.378218 -3.359416,-0.733898 -2.490763,-0.52326 -3.11912,-0.60214 -3.292243,-0.413282 -0.50655,0.552587 -3.659515,4.092322 -3.967429,4.454109 -0.332727,0.390938 -0.321876,0.447269 0.701342,3.640776 l 1.039299,3.243695 3.02593,0.651553 c 1.664262,0.358354 3.189997,0.661963 3.390525,0.674685 0.248896,0.0158 0.912418,-0.591356 2.090909,-1.913256 l 0,0 z m 18.821785,-2.701702 1.764066,-2.456271 -1.233851,-2.734196 c -0.678618,-1.503808 -1.293938,-2.771331 -1.367377,-2.816718 -0.147125,-0.09093 -5.042038,-0.627453 -5.72449,-0.627453 -0.340702,0 -0.779115,0.492609 -2.162399,2.429718 C 31.980775,42.384244 31.2,43.530818 31.2,43.595842 c 0,0.124222 2.355064,5.432443 2.45694,5.537845 0.09083,0.09398 4.243425,0.526991 5.299673,0.552628 l 0.938429,0.02278 1.764065,-2.456271 0,0 z m 19.745448,-7.225547 1.43145,-0.772728 1.79e-4,-1.752005 1.8e-4,-1.752007 -1.318157,-0.793448 c -0.724987,-0.436398 -1.393191,-0.825274 -1.484898,-0.864172 -0.09171,-0.0389 -0.847522,0.288374 -1.679587,0.727272 l -1.512849,0.797997 -0.0023,1.758182 -0.0023,1.758181 1.318181,0.830113 c 0.725,0.456562 1.430768,0.831289 1.56837,0.832727 0.137603,0.0015 0.894341,-0.345112 1.68164,-0.770112 l 0,0 z M 13.340207,29.222449 c 1.272886,-0.867654 2.329696,-1.585284 2.348466,-1.594734 0.07198,-0.03624 -0.412076,-5.7205 -0.493593,-5.79627 -0.04729,-0.04396 -1.209651,-0.614736 -2.583015,-1.268392 L 10.11504,19.374585 7.8490344,20.907147 c -1.2463028,0.842909 -2.3079666,1.600457 -2.3592526,1.68344 -0.051286,0.08298 4.546e-4,1.402573 0.1149904,2.932426 L 5.81301,28.30456 8.3678876,29.55228 C 9.7730702,30.238525 10.945963,30.8 10.974316,30.8 c 0.02835,0 1.093004,-0.709898 2.365891,-1.577551 z m 10.444197,0.926811 1.766221,-0.315115 0.72877,-2.178554 0.728769,-2.178556 -1.475735,-1.702153 c -0.811653,-0.936186 -1.525309,-1.702218 -1.5859,-1.702297 -0.531765,-7.27e-4 -4.155133,0.823086 -4.308974,0.979644 -0.109346,0.111275 -0.50478,1.085742 -0.878743,2.165486 -0.576935,1.665785 -0.643812,2.010061 -0.441481,2.272727 0.131148,0.170256 0.807646,0.950845 1.503329,1.73464 1.085936,1.223476 1.330851,1.41194 1.7312,1.332187 0.256478,-0.05109 1.261122,-0.234698 2.232544,-0.408009 l 0,0 z M 49.196151,22.8 c 2.031171,-2.65 3.770164,-4.91705 3.864427,-5.037888 C 53.176407,17.613628 52.45244,15.63913 50.827295,11.671203 49.504727,8.4420413 48.367771,5.7379647 48.300729,5.6621438 48.162871,5.5062358 35.425149,3.778024 35.326578,3.9018538 c -0.924053,1.1608344 -7.407733,9.6429302 -7.570345,9.9036922 -0.202142,0.324155 0.06151,1.078129 2.161696,6.181818 1.315553,3.196951 2.461969,5.88286 2.547589,5.968687 0.195091,0.195564 12.786649,1.92028 12.931493,1.771278 C 45.455367,27.667298 47.16498,25.45 49.196151,22.8 z"
       id="path3091"
       inkscape:connector-curvature="0" />
    <path
       style="fill:#ff7f2a;fill-opacity:1;stroke:#000000;stroke-width:0.18181819;stroke-miterlimit:4;stroke-opacity:1;stroke-dasharray:none"
       d="m 17.755875,50.053797 c -1.344268,-0.294792 -2.457835,-0.554312 -2.474592,-0.57671 -0.01676,-0.0224 -0.408409,-1.179011 -0.870337,-2.570252 l -0.839869,-2.529528 0.9791,-1.106835 c 0.538504,-0.60876 1.375466,-1.53426 1.859916,-2.056667 l 0.880816,-0.949832 2.545455,0.550077 c 1.4,0.302542 2.596359,0.607238 2.658576,0.677104 0.06222,0.06987 0.480163,1.235625 0.928769,2.590576 l 0.815648,2.463548 -1.781504,1.990997 c -0.979826,1.095049 -1.888682,2.005062 -2.019678,2.022253 -0.130996,0.01719 -1.338031,-0.209939 -2.6823,-0.504731 l 0,0 z"
       id="path3093"
       inkscape:connector-curvature="0" />
    <path
       style="fill:#ff7f2a;fill-opacity:1;stroke:#000000;stroke-width:0.18181819;stroke-miterlimit:4;stroke-opacity:1;stroke-dasharray:none"
       d="m 58.790909,38.953793 c -0.693006,-0.439872 -0.863636,-0.648416 -0.863636,-1.05553 0,-1.193695 0.189497,-1.556052 1.073672,-2.053071 l 0.861368,-0.484198 0.944473,0.580815 c 0.586982,0.360972 0.908964,0.673348 0.850661,0.825283 -0.0516,0.134457 -0.09381,0.592954 -0.09381,1.018882 0,0.739691 -0.03983,0.796093 -0.888241,1.257857 -0.488533,0.265893 -0.918078,0.477749 -0.954546,0.47079 -0.03647,-0.007 -0.45494,-0.259331 -0.92994,-0.560828 z"
       id="path3095"
       inkscape:connector-curvature="0" />
    <path
       style="fill:#ff7f2a;fill-opacity:1;stroke:#000000;stroke-width:0.18181819;stroke-miterlimit:4;stroke-opacity:1;stroke-dasharray:none"
       d="M 39.055992,25.792595 C 35.926787,25.371591 33.33602,24.996484 33.298731,24.959022 33.173443,24.833153 28.96224,14.529431 28.959894,14.343015 c -0.0033,-0.264588 6.783208,-9.0080703 7.080435,-9.122127 0.205504,-0.078859 11.379878,1.3395694 11.440284,1.4521822 0.235356,0.4387645 4.264842,10.4811408 4.264842,10.6289338 0,0.148328 -6.742255,9.076998 -6.977846,9.24066 -0.01219,0.0085 -2.582413,-0.329068 -5.711617,-0.750069 z"
       id="path3097"
       inkscape:connector-curvature="0" />
    <path
       style="fill:#ff7f2a;fill-opacity:1;stroke:#000000;stroke-width:0.18181819;stroke-miterlimit:4;stroke-opacity:1;stroke-dasharray:none"
       d="m 20.472727,28.146928 c -0.55,-0.655786 -0.976519,-1.288484 -0.94782,-1.405996 0.0287,-0.117513 0.260309,-0.794919 0.514691,-1.505348 l 0.462512,-1.291689 1.303491,-0.232242 c 0.716919,-0.127734 1.394839,-0.266945 1.506488,-0.309358 0.111648,-0.04241 0.678926,0.464975 1.260616,1.127529 l 1.057619,1.204644 -0.491283,1.508559 -0.491283,1.508558 -1.496606,0.297076 c -0.823134,0.163392 -1.537516,0.29562 -1.587516,0.29384 -0.05,-0.0018 -0.540909,-0.539788 -1.090909,-1.195573 z"
       id="path3099"
       inkscape:connector-curvature="0" />
    <path
       style="fill:#ff9955;fill-opacity:1;stroke:#000000;stroke-width:0.18181818999999999;stroke-miterlimit:4;stroke-opacity:1;stroke-dasharray:none"
       d="m 51.027063,60.145297 c -1.145115,-0.240144 -2.136901,-0.497894 -2.203969,-0.572779 -0.06707,-0.07489 -0.449919,-1.127225 -0.850779,-2.338534 l -0.728838,-2.20238 1.602153,-1.818761 1.602153,-1.818761 2.330654,0.458469 c 1.28186,0.252158 2.34655,0.468477 2.365979,0.480709 0.01943,0.01223 0.399944,1.050075 0.845588,2.306318 l 0.810261,2.284078 -1.62726,1.847263 c -0.894993,1.015994 -1.725508,1.839104 -1.845587,1.829132 -0.12008,-0.01 -1.155239,-0.214611 -2.300355,-0.454754 l 0,0 z"
       id="path3101"
       inkscape:connector-curvature="0" />
    <path
       style="fill:#ff9955;fill-opacity:1;stroke:#000000;stroke-width:0.18181819;stroke-miterlimit:4;stroke-opacity:1;stroke-dasharray:none"
       d="m 36.849165,48.326644 c -1.24296,-0.135573 -2.316078,-0.30953 -2.384708,-0.38657 -0.06863,-0.07704 -0.538597,-1.057821 -1.044373,-2.179512 l -0.919592,-2.039439 1.394162,-1.937544 1.394162,-1.937545 1.455592,0.119253 c 0.800576,0.06559 1.879572,0.168116 2.397769,0.227836 l 0.942178,0.108581 0.921459,2.068041 c 0.506802,1.137422 0.921459,2.149148 0.921459,2.248279 0,0.163889 -2.706836,4.030193 -2.784782,3.977638 -0.01837,-0.01239 -1.050367,-0.133444 -2.293326,-0.269018 z"
       id="path3103"
       inkscape:connector-curvature="0" />
    <path
       style="fill:#ff9955;fill-opacity:1;stroke:#000000;stroke-width:0.18181819;stroke-miterlimit:4;stroke-opacity:1;stroke-dasharray:none"
       d="M 8.7993515,28.468571 C 7.8289947,28.000857 6.9966638,27.495455 6.9497273,27.345455 c -0.046937,-0.15 -0.140056,-1.146826 -0.2069319,-2.215168 l -0.1215926,-1.94244 1.8025916,-1.200173 1.8025916,-1.200173 1.927951,0.900268 1.927952,0.900267 0.09828,0.7878 c 0.05405,0.43329 0.148052,1.413019 0.208884,2.177175 l 0.110604,1.389375 -1.759675,1.201534 c -0.967822,0.660844 -1.853516,1.195573 -1.968211,1.188288 -0.114695,-0.0073 -1.0024638,-0.395922 -1.9728205,-0.863637 l 0,0 z"
       id="path3105"
       inkscape:connector-curvature="0" />
    <path
       style="fill:#ff9955;fill-opacity:1;stroke:#000000;stroke-width:0.18181819;stroke-miterlimit:4;stroke-opacity:1;stroke-dasharray:none"
       d="M 4.0008125,12.569978 2.3470797,9.9818182 3.7193437,7.2211633 5.0916078,4.4605085 6.3730765,4.3623391 C 7.0778845,4.3083459 8.4809316,4.2154064 9.4909591,4.1558068 L 11.327373,4.047444 12.990959,6.5960665 c 0.914973,1.4017426 1.663586,2.643501 1.663586,2.7594633 0,0.3975271 -2.599095,5.2785702 -2.890569,5.4284242 -0.160187,0.08236 -1.60034,0.200239 -3.2003396,0.261962 l -2.9090909,0.112222 -1.653733,-2.58816 0,0 z"
       id="path3107"
       inkscape:connector-curvature="0" />
  </g>
</svg>
